<svg width="9" height="15" viewBox="0 0 9 15" fill="none" xmlns="http://www.w3.org/2000/svg">
<path d="M3.888 2.68834C3.312 2.68834 2.864 2.811 2.544 3.05634C2.23467 3.291 2.08 3.691 2.08 4.25634C2.08 4.51234 2.13334 4.731 2.24 4.91234C2.34667 5.09367 2.48 5.24834 2.64 5.37634C2.81067 5.50434 3.00267 5.611 3.216 5.69634C3.44 5.771 3.664 5.835 3.888 5.88834V2.68834ZM1.84 9.47234C1.82934 10.1763 1.984 10.731 2.304 11.1363C2.624 11.5417 3.152 11.755 3.888 11.7763V7.90434C3.45067 7.787 3.01334 7.64834 2.576 7.48834C2.14934 7.31767 1.76 7.10434 1.408 6.84834C1.06667 6.58167 0.789337 6.251 0.576003 5.85634C0.36267 5.46167 0.256003 4.971 0.256003 4.38434C0.256003 3.87234 0.352003 3.42434 0.544003 3.04034C0.74667 2.64567 1.01334 2.32034 1.344 2.06434C1.68534 1.79767 2.07467 1.595 2.512 1.45634C2.94934 1.31767 3.408 1.24834 3.888 1.24834V0.000335693H4.576V1.24834C5.056 1.24834 5.50934 1.31234 5.936 1.44034C6.36267 1.56834 6.73067 1.76034 7.04 2.01634C7.36 2.27234 7.61067 2.59767 7.792 2.99234C7.984 3.387 8.08 3.84567 8.08 4.36834H6.256C6.23467 3.82434 6.09067 3.40834 5.824 3.12034C5.568 2.83234 5.152 2.68834 4.576 2.68834V6.06434C5.056 6.19234 5.52534 6.34167 5.984 6.51234C6.44267 6.683 6.848 6.90167 7.2 7.16834C7.552 7.435 7.83467 7.76567 8.048 8.16034C8.26134 8.555 8.368 9.04034 8.368 9.61634C8.368 10.2137 8.26667 10.7363 8.064 11.1843C7.872 11.6217 7.60534 11.9897 7.264 12.2883C6.92267 12.5763 6.52267 12.795 6.064 12.9443C5.60534 13.1043 5.10934 13.195 4.576 13.2163V14.4643H3.888V13.2163C3.312 13.2057 2.784 13.115 2.304 12.9443C1.824 12.7737 1.41334 12.5337 1.072 12.2243C0.73067 11.9043 0.464003 11.515 0.272003 11.0563C0.09067 10.5977 0.00533664 10.0697 0.0160033 9.47234H1.84ZM4.576 11.7763C5.152 11.7337 5.62134 11.5683 5.984 11.2803C6.35734 10.9817 6.544 10.5123 6.544 9.87234C6.544 9.57367 6.48534 9.323 6.368 9.12034C6.26134 8.91767 6.112 8.747 5.92 8.60834C5.73867 8.46967 5.53067 8.35767 5.296 8.27234C5.06134 8.187 4.82134 8.11234 4.576 8.04834V11.7763Z" fill="#16A34A"/>
</svg>
