<svg width="8" height="15" viewBox="0 0 8 15" fill="none" xmlns="http://www.w3.org/2000/svg">
<path d="M1.36 9.264C1.38133 9.97867 1.6 10.544 2.016 10.96C2.44267 11.376 2.976 11.6373 3.616 11.744V7.504C3.05067 7.36533 2.56 7.216 2.144 7.056C1.73867 6.896 1.39733 6.69867 1.12 6.464C0.853333 6.22933 0.656 5.94667 0.528 5.616C0.4 5.28533 0.336 4.88533 0.336 4.416C0.336 3.936 0.421333 3.49867 0.592 3.104C0.762667 2.69867 0.992 2.352 1.28 2.064C1.57867 1.76533 1.92533 1.53067 2.32 1.36C2.72533 1.18933 3.15733 1.088 3.616 1.056V0H4.496V1.072C5.36 1.17867 6.048 1.504 6.56 2.048C7.072 2.58133 7.43467 3.312 7.648 4.24H6.288C6.07467 3.184 5.47733 2.56533 4.496 2.384V6.32L5.456 6.576C5.65867 6.62933 5.904 6.72533 6.192 6.864C6.49067 6.992 6.77333 7.17333 7.04 7.408C7.30667 7.64267 7.53067 7.936 7.712 8.288C7.904 8.64 8 9.06133 8 9.552C8 10.064 7.90933 10.528 7.728 10.944C7.55733 11.3493 7.31733 11.7013 7.008 12C6.69867 12.2987 6.33067 12.5333 5.904 12.704C5.47733 12.8747 5.008 12.9813 4.496 13.024V14.336H3.616V13.024C2.56 12.9173 1.712 12.544 1.072 11.904C0.442667 11.2533 0.0853333 10.3733 0 9.264H1.36ZM4.496 11.744C4.79467 11.7227 5.06667 11.6693 5.312 11.584C5.568 11.488 5.78667 11.36 5.968 11.2C6.16 11.04 6.304 10.8373 6.4 10.592C6.50667 10.336 6.56 10.0373 6.56 9.696C6.56 9.39733 6.50667 9.14133 6.4 8.928C6.29333 8.71467 6.14933 8.53333 5.968 8.384C5.78667 8.23467 5.568 8.112 5.312 8.016C5.056 7.90933 4.784 7.81333 4.496 7.728V11.744ZM3.616 2.336C3.104 2.38933 2.66667 2.576 2.304 2.896C1.952 3.20533 1.776 3.664 1.776 4.272C1.776 4.56 1.81867 4.8 1.904 4.992C2 5.184 2.128 5.34933 2.288 5.488C2.45867 5.616 2.656 5.728 2.88 5.824C3.104 5.92 3.34933 6.00533 3.616 6.08V2.336Z" fill="white"/>
</svg>
