<svg width="13" height="13" viewBox="0 0 13 13" fill="none" xmlns="http://www.w3.org/2000/svg">
<path d="M12.4552 11.8194C12.4201 9.65715 11.2765 7.76414 9.5703 6.67578C8.71873 7.54182 7.53564 8.0803 6.22803 8.0803C4.92086 8.0803 3.73779 7.54182 2.88622 6.67622C1.15326 7.78169 0 9.71723 0 11.9211C0 12.2211 0.24293 12.4636 0.542426 12.4636H11.9132C11.9163 12.4631 11.9198 12.4631 11.9224 12.4636C12.2224 12.4636 12.4648 12.2206 12.4648 11.9211C12.4644 11.8865 12.4613 11.8523 12.4552 11.8194Z" fill="white"/>
<path d="M6.22756 6.77835C8.09935 6.77835 9.61674 5.26097 9.61674 3.38918C9.61674 1.51739 8.09935 0 6.22756 0C4.35577 0 2.83838 1.51739 2.83838 3.38918C2.83838 5.26097 4.35577 6.77835 6.22756 6.77835Z" fill="white"/>
</svg>
