<svg width="10" height="9" viewBox="0 0 10 9" fill="none" xmlns="http://www.w3.org/2000/svg">
<path d="M9.15913 4.36277C9.15913 4.2893 9.14399 4.22 9.119 4.15562C9.11786 4.15297 9.11748 4.14994 9.11634 4.14691C9.08756 4.07685 9.04515 4.01361 8.99251 3.96097L5.19798 0.166437C4.97606 -0.0554789 4.61668 -0.0554789 4.39476 0.166437C4.17285 0.387974 4.17285 0.748115 4.39476 0.969652L7.21983 3.79472H0.568044C0.254484 3.79472 0 4.04883 0 4.36277C0 4.6767 0.254484 4.93081 0.568044 4.93081H7.21983L4.39476 7.75588C4.17285 7.97742 4.17285 8.33756 4.39476 8.5591C4.50572 8.67005 4.65114 8.72534 4.79656 8.72534C4.94198 8.72534 5.0874 8.67005 5.19835 8.5591L8.99289 4.76456C9.04591 4.71192 9.08794 4.64868 9.11672 4.57862C9.11786 4.57559 9.11824 4.57256 9.11937 4.56991C9.14399 4.50553 9.15913 4.43623 9.15913 4.36277Z" fill="#1E74D9"/>
</svg>
