<svg width="11" height="11" viewBox="0 0 11 11" fill="none" xmlns="http://www.w3.org/2000/svg">
<path d="M9.34966 5.45179C9.00829 5.45179 8.73124 5.72843 8.73124 6.0702V8.85721C8.73124 9.06046 8.56632 9.22579 8.36265 9.22579H1.605C1.40216 9.22579 1.23684 9.06046 1.23684 8.85721V2.09996C1.23684 1.89671 1.40175 1.73098 1.605 1.73098H4.392C4.73336 1.73098 5.01041 1.45434 5.01041 1.11256C5.01041 0.770779 4.73336 0.494141 4.392 0.494141H1.605C0.720253 0.494141 0 1.21439 0 2.09996V8.85721C0 9.74237 0.71984 10.4626 1.605 10.4626H8.36265C9.24741 10.4626 9.96807 9.74237 9.96807 8.85721V6.0702C9.96807 5.72843 9.69102 5.45179 9.34966 5.45179Z" fill="white"/>
<path d="M10.1849 1.36872L9.09401 0.277824C8.72461 -0.0924019 8.07816 -0.0928142 7.70793 0.277824L6.79763 1.18814L4.34127 3.64491C4.2753 3.71087 4.23366 3.79703 4.22335 3.8898L3.97929 6.02705C3.96486 6.15197 4.00814 6.27648 4.0972 6.36512C4.1747 6.44262 4.27984 6.48591 4.38868 6.48591C4.40434 6.48591 4.4196 6.48509 4.43527 6.48344L6.57251 6.23896C6.66528 6.22824 6.75145 6.18701 6.81742 6.12105L9.27418 3.66552L9.27459 3.66511L10.1853 2.75521C10.5671 2.37261 10.5667 1.7509 10.1849 1.36872Z" fill="white"/>
</svg>
