<svg width="14" height="10" viewBox="0 0 14 10" fill="none" xmlns="http://www.w3.org/2000/svg">
<path d="M11.9499 2.2546H11.6786C11.3812 2.2546 11.1113 2.37312 10.9106 2.56289C10.8448 2.37312 10.7763 2.17171 10.7058 1.9744C10.7003 1.9607 10.6955 1.94837 10.6914 1.93467C10.6736 1.88534 10.6564 1.83533 10.6393 1.78532C10.6318 1.76682 10.6249 1.74833 10.6194 1.72983C10.6037 1.68667 10.5879 1.64351 10.5729 1.60103C10.5633 1.57774 10.5557 1.55376 10.5468 1.52979C10.5331 1.49279 10.5215 1.45648 10.5071 1.42086C10.4995 1.39893 10.4913 1.37701 10.4831 1.35577C10.4687 1.31673 10.455 1.27973 10.4413 1.24342C10.4338 1.22561 10.4269 1.20574 10.4214 1.1893C10.4009 1.13723 10.3824 1.08791 10.3646 1.04201C10.1481 0.489833 9.35272 0.181546 7.79074 0.0691931C7.79074 0.0691931 7.32214 0 6.53362 0C5.72111 0 5.27786 0.0691931 5.27786 0.0691931C3.71382 0.182231 2.9205 0.489833 2.70401 1.04201C2.67387 1.12079 2.63962 1.20985 2.60399 1.30302C2.60331 1.30782 2.60125 1.31193 2.59988 1.31604C2.56563 1.4099 2.52795 1.50923 2.49164 1.61337C2.48958 1.61953 2.48616 1.62707 2.48479 1.63255C2.44711 1.73599 2.40943 1.84081 2.37175 1.94905C2.36832 1.95933 2.36421 1.96824 2.36079 1.97783C2.32311 2.08744 2.28406 2.19842 2.24501 2.30941C2.24433 2.31352 2.24227 2.31763 2.24159 2.32174C2.21281 2.40258 2.18472 2.48342 2.158 2.5622C1.95728 2.37244 1.68736 2.25392 1.38935 2.25392H1.11942C0.502165 2.25392 0 2.75608 0 3.37334C0 3.38635 0.000685258 3.40006 0.00205542 3.41239C0.0349393 3.71725 0.240463 4.04746 0.611092 4.04746H1.23452C1.10572 4.16872 0.979666 4.28861 0.883755 4.38452C0.471336 4.79557 0.515867 5.5149 0.530939 5.67178V7.69894C0.530939 7.89419 0.687822 8.05038 0.8817 8.05518V8.05655H1.01187V9.40753C1.01187 9.574 1.14751 9.70897 1.31399 9.70897H3.25756C3.42472 9.70897 3.56037 9.574 3.56037 9.40753V8.05655H3.89879H9.17255H9.51098V9.40753C9.51098 9.574 9.64662 9.70897 9.81378 9.70897H11.7574C11.9245 9.70897 12.0595 9.574 12.0595 9.40753V8.05655H12.1883V8.05518C12.3822 8.05175 12.539 7.89419 12.539 7.69894V5.67178C12.5534 5.5149 12.5986 4.79557 12.1869 4.38452C12.0903 4.28861 11.9649 4.1694 11.8348 4.04746H12.4575C12.8302 4.04746 13.0357 3.71725 13.0672 3.4117C13.07 3.39937 13.0707 3.38635 13.0707 3.37334C13.07 2.75608 12.5671 2.2546 11.9499 2.2546ZM2.79102 6.96453C2.25323 6.96453 1.81684 6.52745 1.81684 5.99103C1.81684 5.45324 2.25392 5.01753 2.79102 5.01753C3.32812 5.01753 3.7652 5.45393 3.7652 5.99103C3.76452 6.52745 3.32812 6.96453 2.79102 6.96453ZM2.64921 3.33223C2.64989 3.32949 2.65058 3.32675 2.65195 3.32401C2.67456 3.25962 2.69785 3.18905 2.72251 3.1178C2.72799 3.10067 2.73347 3.08286 2.73964 3.06574C2.79171 2.91433 2.8472 2.75266 2.90406 2.58755C2.91091 2.56974 2.91707 2.54987 2.92324 2.53274C2.95201 2.44985 2.98079 2.36764 3.01024 2.28611V2.28337C3.03902 2.20391 3.06711 2.12307 3.09519 2.04497C3.10273 2.02304 3.11027 2.00181 3.11986 1.97851C3.14589 1.90384 3.17261 1.82985 3.19864 1.7586C3.20001 1.75586 3.2007 1.75244 3.20275 1.74901C3.22947 1.67639 3.25482 1.60651 3.27948 1.53869C3.28702 1.52225 3.2925 1.50649 3.29866 1.48937C3.32333 1.4236 3.34799 1.35989 3.36923 1.30302C3.398 1.23041 3.60832 0.879644 5.14359 0.799489C5.57724 0.776882 6.07256 0.735092 6.53362 0.735092C6.98988 0.735092 7.03578 0.746738 7.38106 0.763865C7.56124 0.780992 7.71812 0.783732 7.76745 0.787843C9.44041 0.913212 9.66718 1.22835 9.69732 1.30371C9.72061 1.36057 9.74322 1.42497 9.76925 1.49211C9.77747 1.5154 9.7857 1.53869 9.79597 1.56267C9.81241 1.61063 9.8316 1.65995 9.84941 1.71133C9.85968 1.73736 9.86859 1.76271 9.8775 1.78875C9.90216 1.85588 9.92751 1.92439 9.95217 1.99359C9.96313 2.02441 9.97341 2.05661 9.98574 2.08676C10.0049 2.14293 10.0248 2.19774 10.0447 2.25392C10.0584 2.29228 10.0707 2.33064 10.0851 2.36969C10.1001 2.41285 10.1152 2.45464 10.1296 2.4978C10.144 2.53754 10.1577 2.57727 10.1714 2.61701C10.1954 2.68415 10.2166 2.74923 10.2399 2.81363C10.2543 2.85268 10.2659 2.89036 10.2796 2.92872C10.294 2.97257 10.3091 3.01573 10.3242 3.05752C10.3372 3.09725 10.3502 3.13356 10.3632 3.17193C10.3742 3.20001 10.3817 3.22742 10.392 3.25482C10.4002 3.28222 10.4091 3.30826 10.418 3.3336H2.64921V3.33223ZM10.2372 5.01685C10.7743 5.01685 11.2107 5.45324 11.2107 5.99035C11.2107 6.52745 10.7743 6.96385 10.2372 6.96385C9.69869 6.96385 9.26298 6.52676 9.26298 5.99035C9.26298 5.45256 9.69869 5.01685 10.2372 5.01685Z" fill="white"/>
</svg>
