<svg width="14" height="12" viewBox="0 0 14 12" fill="none" xmlns="http://www.w3.org/2000/svg">
<path d="M12.4558 1.9413L10.3813 1.54194C10.3343 1.53285 10.2869 1.52931 10.2404 1.52931C10.2389 1.52931 10.2379 1.52881 10.2364 1.52881C10.1425 1.52931 10.0506 1.5485 9.96272 1.58233C9.95818 1.58384 9.95313 1.58435 9.94909 1.58636C9.90213 1.60606 9.85669 1.62928 9.81378 1.65856C9.79308 1.6727 9.78147 1.69492 9.76178 1.71107C9.74259 1.72672 9.71937 1.73329 9.7017 1.75096C9.68302 1.76964 9.67595 1.79387 9.65979 1.81407C9.62798 1.85345 9.60123 1.89384 9.5775 1.93877C9.55377 1.98421 9.53508 2.02864 9.52144 2.07711C9.51488 2.09983 9.49924 2.11902 9.4947 2.14275L9.09532 4.21833C9.03726 4.51924 9.16651 4.8252 9.42199 4.99383C9.54821 5.07713 9.69362 5.11904 9.83852 5.11904C9.98696 5.11904 10.1354 5.07562 10.2636 4.98878L10.8044 4.62223C10.9457 5.06199 11.022 5.52446 11.022 5.99956C11.022 8.47248 9.0105 10.4849 6.53808 10.4849C6.24071 10.4849 5.94385 10.4557 5.65606 10.3991C5.24458 10.3178 4.84723 10.5844 4.76544 10.9949C4.68416 11.4054 4.95073 11.8037 5.3612 11.885C5.74643 11.9612 6.14226 12.0001 6.53808 12.0001C9.84558 12.0001 12.5366 9.30857 12.5366 6.00006C12.5366 5.21446 12.3846 4.4531 12.0984 3.74626L12.7381 3.31307C12.9915 3.14141 13.1167 2.83393 13.0551 2.53403C12.9935 2.23413 12.7567 1.99936 12.4558 1.9413Z" fill="white"/>
<path d="M3.64764 6.9982C3.39217 6.83007 3.05946 6.83159 2.806 7.00375L2.2683 7.36828C2.12895 6.93105 2.05373 6.4716 2.05373 5.99954C2.05373 3.52712 4.06519 1.51516 6.53861 1.51516C6.83498 1.51516 7.12831 1.54393 7.41054 1.60048C7.81597 1.68227 8.21988 1.41771 8.30218 1.00674C8.38448 0.596773 8.11891 0.19741 7.70844 0.115114C7.32826 0.0388764 6.93495 0 6.53912 0C3.23112 0 0.539587 2.69103 0.539587 5.99903C0.539587 6.7816 0.690547 7.54044 0.974797 8.24476L0.332583 8.67997C0.079131 8.85163 -0.046091 9.1591 0.0155048 9.459C0.0771007 9.75891 0.313897 9.99267 0.614808 10.0502L2.68887 10.4496C2.73734 10.4587 2.7848 10.4632 2.83277 10.4632C2.92769 10.4632 3.01806 10.443 3.10288 10.4102C3.12712 10.4011 3.1468 10.384 3.17003 10.3723C3.23112 10.341 3.28816 10.3067 3.33865 10.2603C3.34774 10.2522 3.35885 10.2497 3.36743 10.2416C3.3846 10.2244 3.39116 10.2012 3.40631 10.183C3.44417 10.1376 3.47751 10.0901 3.50376 10.0361C3.52194 9.99923 3.53506 9.96237 3.54667 9.9235C3.55475 9.89775 3.57041 9.87604 3.57546 9.84928L3.97532 7.7737C4.03288 7.47279 3.90362 7.16683 3.64764 6.9982Z" fill="white"/>
</svg>
