<svg width="21" height="16" viewBox="0 0 21 16" fill="none" xmlns="http://www.w3.org/2000/svg">
<path d="M19.1218 3.60775H18.6877C18.212 3.60775 17.78 3.7974 17.4588 4.10106C17.3536 3.7974 17.244 3.4751 17.1311 3.15938C17.1223 3.13746 17.1146 3.11773 17.108 3.0958C17.0795 3.01687 17.0521 2.93685 17.0247 2.85682C17.0127 2.82722 17.0017 2.79762 16.9929 2.76802C16.9677 2.69896 16.9425 2.6299 16.9184 2.56193C16.903 2.52466 16.891 2.48629 16.8767 2.44792C16.8548 2.38872 16.8362 2.33062 16.8131 2.27362C16.8011 2.23854 16.7879 2.20346 16.7748 2.16947C16.7518 2.10699 16.7298 2.04779 16.7079 1.98969C16.6958 1.96119 16.6849 1.9294 16.6761 1.90309C16.6432 1.81977 16.6136 1.74084 16.5851 1.66739C16.2387 0.783817 14.966 0.290505 12.4665 0.110721C12.4665 0.110721 11.7167 0 10.4549 0C9.15476 0 8.44549 0.110721 8.44549 0.110721C5.94276 0.291602 4.6733 0.783817 4.32689 1.66739C4.27865 1.79346 4.22384 1.93597 4.16684 2.08506C4.16574 2.09274 4.16245 2.09931 4.16026 2.10589C4.10545 2.25608 4.04515 2.41503 3.98705 2.58166C3.98376 2.59153 3.97828 2.60359 3.97609 2.61236C3.9158 2.77789 3.8555 2.94562 3.79521 3.11882C3.78973 3.13527 3.78315 3.14952 3.77767 3.16487C3.71738 3.34027 3.65489 3.51786 3.59241 3.69545C3.59131 3.70203 3.58802 3.7086 3.58692 3.71518C3.54088 3.84454 3.49593 3.9739 3.45318 4.09997C3.13198 3.79631 2.70006 3.60665 2.22319 3.60665H1.79127C0.80355 3.60665 0 4.4102 0 5.39792C0 5.41875 0.00109653 5.44067 0.00328903 5.46041C0.0559089 5.94824 0.384783 6.47663 0.977853 6.47663H1.97544C1.76934 6.67067 1.56763 6.86251 1.41416 7.01598C0.754219 7.67373 0.825476 8.82479 0.849593 9.07583V12.3196C0.849593 12.6321 1.10063 12.882 1.41087 12.8897V12.8919H1.61916V15.0537C1.61916 15.3201 1.83622 15.536 2.1026 15.536H5.21266C5.48014 15.536 5.6972 15.3201 5.6972 15.0537V12.8919H6.23874H14.6777H15.2192V15.0537C15.2192 15.3201 15.4363 15.536 15.7037 15.536H18.8138C19.0813 15.536 19.2972 15.3201 19.2972 15.0537V12.8919H19.5033V12.8897C19.8136 12.8842 20.0646 12.6321 20.0646 12.3196V9.07583C20.0876 8.82479 20.16 7.67373 19.5011 7.01598C19.3466 6.86251 19.146 6.67176 18.9377 6.47663H19.9342C20.5305 6.47663 20.8594 5.94824 20.9098 5.45931C20.9142 5.43958 20.9153 5.41875 20.9153 5.39792C20.9142 4.4102 20.1096 3.60775 19.1218 3.60775ZM4.46611 11.1445C3.60556 11.1445 2.90725 10.445 2.90725 9.58668C2.90725 8.72613 3.60665 8.02892 4.46611 8.02892C5.32557 8.02892 6.02498 8.72722 6.02498 9.58668C6.02388 10.445 5.32557 11.1445 4.46611 11.1445ZM4.23919 5.33215C4.24029 5.32776 4.24138 5.32338 4.24357 5.31899C4.27975 5.21595 4.31702 5.10303 4.35649 4.98902C4.36526 4.96161 4.37403 4.93311 4.3839 4.9057C4.46721 4.66343 4.556 4.40472 4.64699 4.14053C4.65796 4.11202 4.66782 4.08023 4.67769 4.05282C4.72373 3.92018 4.76977 3.78863 4.81691 3.65818V3.65379C4.86295 3.52663 4.9079 3.39727 4.95285 3.2723C4.9649 3.23722 4.97696 3.20324 4.99231 3.16596C5.03397 3.04647 5.07672 2.92808 5.11838 2.81407C5.12057 2.80968 5.12167 2.8042 5.12496 2.79872C5.16771 2.68252 5.20827 2.5707 5.24774 2.46217C5.2598 2.43586 5.26857 2.41065 5.27843 2.38324C5.3179 2.278 5.35736 2.17605 5.39135 2.08506C5.43739 1.96886 5.77394 1.40758 8.23063 1.27932C8.92455 1.24314 9.71714 1.17627 10.4549 1.17627C11.185 1.17627 11.2585 1.19491 11.811 1.22232C12.0993 1.24972 12.3503 1.25411 12.4293 1.26068C15.1063 1.4613 15.4691 1.96557 15.5174 2.08616C15.5547 2.17715 15.5908 2.28019 15.6325 2.38763C15.6456 2.4249 15.6588 2.46217 15.6752 2.50054C15.7016 2.57728 15.7322 2.65621 15.7607 2.73843C15.7772 2.78008 15.7914 2.82064 15.8057 2.8623C15.8452 2.96973 15.8857 3.07936 15.9252 3.19008C15.9427 3.23941 15.9592 3.29093 15.9789 3.33917C16.0096 3.42906 16.0414 3.51676 16.0732 3.60665C16.0951 3.66804 16.1148 3.72943 16.1379 3.79192C16.162 3.86098 16.1861 3.92785 16.2091 3.99692C16.2321 4.0605 16.2541 4.12408 16.276 4.18766C16.3144 4.2951 16.3483 4.39924 16.3856 4.50229C16.4086 4.56477 16.4273 4.62507 16.4492 4.68646C16.4722 4.75662 16.4963 4.82568 16.5204 4.89255C16.5413 4.95614 16.5621 5.01424 16.5829 5.07563C16.6005 5.12057 16.6125 5.16442 16.629 5.20827C16.6421 5.25212 16.6564 5.29378 16.6706 5.33434H4.23919V5.33215ZM16.3812 8.02782C17.2407 8.02782 17.939 8.72613 17.939 9.58559C17.939 10.445 17.2407 11.1434 16.3812 11.1434C15.5196 11.1434 14.8224 10.4439 14.8224 9.58559C14.8224 8.72503 15.5196 8.02782 16.3812 8.02782Z" fill="white"/>
</svg>
