<svg width="45" height="30" viewBox="0 0 45 30" fill="none" xmlns="http://www.w3.org/2000/svg">
<path d="M36.4548 10.899C34.7208 4.49375 28.956 0 22.1695 0C15.3845 0 9.61965 4.49375 7.88423 10.899C3.41678 11.6433 0 15.537 0 20.2123C0 25.4158 4.23459 29.6504 9.43807 29.6504H34.901C40.1045 29.6504 44.3377 25.4158 44.3377 20.2123C44.3377 15.5356 40.9209 11.642 36.4548 10.899Z" fill="#979797"/>
<path d="M22.1688 9.09678C22.0653 9.09678 21.9676 9.11812 21.8769 9.15334C21.8732 9.15494 21.8689 9.15548 21.8647 9.15708C21.7659 9.19763 21.6768 9.2574 21.6026 9.33158L16.2558 14.6785C15.9431 14.9912 15.9431 15.4976 16.2558 15.8103C16.5679 16.123 17.0754 16.123 17.3876 15.8103L21.3684 11.8295L21.3684 21.2025C21.3684 21.6443 21.7264 22.0029 22.1688 22.0029C22.6112 22.0029 22.9693 21.6443 22.9693 21.2025L22.9692 11.8295L26.9501 15.8103C27.2622 16.123 27.7697 16.123 28.0819 15.8103C28.2382 15.6539 28.3161 15.449 28.3161 15.2441C28.3161 15.0392 28.2382 14.8343 28.0819 14.6779L22.735 9.33104C22.6608 9.25633 22.5717 9.1971 22.473 9.15655C22.4687 9.15495 22.4644 9.15441 22.4607 9.15281C22.37 9.11813 22.2723 9.09678 22.1688 9.09678Z" fill="white"/>
</svg>
