<svg width="20" height="21" viewBox="0 0 20 21" fill="none" xmlns="http://www.w3.org/2000/svg">
<path d="M5.05959 7.93514L8.75912 4.2356V13.5407C8.75912 14.2265 9.31504 14.7816 10 14.7816C10.685 14.7816 11.2409 14.2265 11.2409 13.5407V4.2356L14.9405 7.93514C15.1829 8.17753 15.5005 8.29832 15.8182 8.29832C16.1359 8.29832 16.4535 8.17753 16.6959 7.93514C17.1807 7.45119 17.1807 6.66446 16.6959 6.18051L10.8794 0.363999C10.7636 0.248182 10.6254 0.157186 10.4732 0.0934866C10.4666 0.0910048 10.46 0.0901744 10.4542 0.0876926C10.3136 0.0322657 10.1613 0 10.0017 0C9.84202 0 9.68981 0.033093 9.54917 0.0876926C9.54255 0.0901744 9.53593 0.0910048 9.53014 0.0934866C9.37709 0.156359 9.23894 0.248182 9.12395 0.363999L3.30743 6.18051C2.82265 6.66446 2.82265 7.45119 3.30743 7.93514C3.78973 8.41992 4.57481 8.41992 5.05959 7.93514Z" fill="white"/>
<path d="M18.7591 13.9224C18.0741 13.9224 17.5182 14.4775 17.5182 15.1633V16.9824C17.5182 17.3448 17.2237 17.6401 16.8613 17.6401H3.14113C2.77796 17.6401 2.4818 17.3456 2.4818 16.9824V15.1633C2.4818 14.4775 1.92588 13.9224 1.2409 13.9224C0.555923 13.9224 0 14.4775 0 15.1633V16.9824C0 18.7139 1.40883 20.1219 3.14113 20.1219H16.8613C18.592 20.1219 20 18.7139 20 16.9824V15.1633C20 14.4775 19.4449 13.9224 18.7591 13.9224Z" fill="white"/>
</svg>
