<svg width="13" height="13" viewBox="0 0 13 13" fill="none" xmlns="http://www.w3.org/2000/svg">
<path d="M3.05467 4.79063L5.28816 2.55713V8.17484C5.28816 8.58888 5.62378 8.92401 6.03732 8.92401C6.45086 8.92401 6.78648 8.58888 6.78648 8.17484V2.55713L9.01999 4.79063C9.16633 4.93697 9.35811 5.00989 9.5499 5.00989C9.74168 5.00989 9.93346 4.93697 10.0798 4.79063C10.3725 4.49846 10.3725 4.02349 10.0798 3.73132L6.56824 0.219755C6.49831 0.149833 6.41491 0.094897 6.32301 0.0564401C6.31902 0.0549418 6.31502 0.0544404 6.31152 0.0529421C6.22662 0.0194796 6.13472 0 6.03833 0C5.94194 0 5.85004 0.019979 5.76514 0.0529421C5.76114 0.0544404 5.75714 0.0549418 5.75364 0.0564401C5.66125 0.0943976 5.57784 0.149833 5.50842 0.219755L1.99685 3.73132C1.70418 4.02349 1.70418 4.49846 1.99685 4.79063C2.28802 5.08331 2.762 5.08331 3.05467 4.79063Z" fill="#11476C"/>
<path d="M11.3253 8.40479C10.9118 8.40479 10.5762 8.73991 10.5762 9.15395V10.2522C10.5762 10.471 10.3984 10.6493 10.1796 10.6493H1.89637C1.67712 10.6493 1.49832 10.4715 1.49832 10.2522V9.15395C1.49832 8.73991 1.1627 8.40479 0.749161 8.40479C0.335624 8.40479 0 8.73991 0 9.15395V10.2522C0 11.2975 0.850546 12.1476 1.89637 12.1476H10.1796C11.2244 12.1476 12.0745 11.2975 12.0745 10.2522V9.15395C12.0745 8.73991 11.7394 8.40479 11.3253 8.40479Z" fill="#11476C"/>
</svg>
