<svg width="13" height="13" viewBox="0 0 13 13" fill="none" xmlns="http://www.w3.org/2000/svg">
<path d="M6.16365 0C2.76503 0 0 2.76503 0 6.16366C0 9.56228 2.76503 12.3273 6.16365 12.3273C9.56227 12.3273 12.3273 9.56228 12.3273 6.16366C12.3273 2.76503 9.56227 0 6.16365 0ZM8.22761 6.86912H6.16365C5.77425 6.86912 5.45782 6.55269 5.45782 6.16329V2.88933C5.45782 2.5003 5.77425 2.1835 6.16365 2.1835C6.55305 2.1835 6.86948 2.5003 6.86948 2.88933V5.45745H8.22761C8.61701 5.45745 8.93344 5.77389 8.93344 6.16329C8.93344 6.55269 8.61664 6.86912 8.22761 6.86912Z" fill="#979797"/>
</svg>
