<svg width="18" height="17" viewBox="0 0 18 17" fill="none" xmlns="http://www.w3.org/2000/svg">
<path d="M16.7181 2.60441L13.9337 2.0684C13.8707 2.0562 13.807 2.05146 13.7446 2.05146C13.7426 2.05146 13.7413 2.05078 13.7392 2.05078C13.6132 2.05146 13.4899 2.07721 13.3719 2.12261C13.3659 2.12464 13.3591 2.12532 13.3536 2.12803C13.2906 2.15446 13.2296 2.18563 13.172 2.22494C13.1443 2.24391 13.1287 2.27373 13.1022 2.29541C13.0765 2.31642 13.0453 2.32523 13.0216 2.34894C12.9965 2.37402 12.987 2.40654 12.9654 2.43365C12.9227 2.4865 12.8868 2.54072 12.8549 2.60103C12.8231 2.66202 12.798 2.72165 12.7797 2.7867C12.7709 2.81719 12.7499 2.84295 12.7438 2.87479L12.2077 5.66058C12.1298 6.06446 12.3033 6.47511 12.6462 6.70144C12.8156 6.81325 13.0108 6.8695 13.2052 6.8695C13.4045 6.8695 13.6037 6.81122 13.7758 6.69467L14.5016 6.2027C14.6913 6.79293 14.7936 7.41365 14.7936 8.05131C14.7936 11.3704 12.0939 14.0715 8.77548 14.0715C8.37635 14.0715 7.97791 14.0322 7.59166 13.9563C7.03938 13.8472 6.50607 14.205 6.39629 14.7559C6.28719 15.3068 6.64498 15.8415 7.1959 15.9506C7.71295 16.0529 8.24421 16.1051 8.77548 16.1051C13.2147 16.1051 16.8266 12.4926 16.8266 8.05199C16.8266 6.99757 16.6226 5.97569 16.2384 5.02699L17.0969 4.44557C17.4371 4.21517 17.6052 3.80249 17.5225 3.39997C17.4398 2.99745 17.122 2.68234 16.7181 2.60441Z" fill="#16A34A"/>
<path d="M4.89577 9.39281C4.55289 9.16715 4.10633 9.16918 3.76615 9.40026L3.04446 9.88952C2.85743 9.30268 2.75647 8.68603 2.75647 8.05243C2.75647 4.73401 5.45619 2.03361 8.77597 2.03361C9.17374 2.03361 9.56745 2.07223 9.94625 2.14813C10.4904 2.2579 11.0325 1.90282 11.143 1.35122C11.2534 0.800974 10.897 0.264959 10.3461 0.154503C9.83581 0.0521789 9.30792 0 8.77665 0C4.33673 0 0.724221 3.61184 0.724221 8.05175C0.724221 9.1021 0.926835 10.1206 1.30835 11.0659L0.446384 11.65C0.106208 11.8804 -0.0618622 12.2931 0.0208102 12.6956C0.103483 13.0982 0.421305 13.4119 0.82518 13.4892L3.60894 14.0252C3.67399 14.0374 3.73769 14.0435 3.80207 14.0435C3.92947 14.0435 4.05077 14.0164 4.16461 13.9723C4.19714 13.9601 4.22356 13.9371 4.25473 13.9215C4.33673 13.8795 4.41329 13.8334 4.48106 13.7711C4.49325 13.7602 4.50817 13.7568 4.51969 13.746C4.54273 13.7229 4.55153 13.6918 4.57186 13.6674C4.62269 13.6064 4.66743 13.5427 4.70266 13.4702C4.72706 13.4207 4.74467 13.3712 4.76026 13.3191C4.7711 13.2845 4.79211 13.2554 4.79889 13.2195L5.33558 10.4337C5.41283 10.0298 5.23934 9.61914 4.89577 9.39281Z" fill="#16A34A"/>
</svg>
