<svg width="15" height="14" viewBox="0 0 15 14" fill="none" xmlns="http://www.w3.org/2000/svg">
<path d="M13.406 5.92123H3.02606L7.43426 1.51303C7.78054 1.16735 7.78054 0.605389 7.43426 0.259706C7.08799 -0.0865685 6.52721 -0.0865685 6.18094 0.259706L0.260002 6.18064C0.177275 6.26278 0.112277 6.36146 0.0667769 6.47078C0.0650042 6.4755 0.064411 6.48023 0.0626383 6.48437C0.0236381 6.58423 0 6.69296 0 6.8076C0 6.92223 0.0236381 7.03037 0.0626383 7.13083C0.064411 7.13555 0.0650042 7.14028 0.0667769 7.14442C0.112277 7.25373 0.177866 7.35242 0.260002 7.43455L6.18094 13.3555C6.35407 13.5286 6.58098 13.6149 6.80789 13.6149C7.0348 13.6149 7.26171 13.5286 7.43485 13.3555C7.78112 13.0098 7.78112 12.4478 7.43485 12.1022L3.02664 7.69396H13.4066C13.8959 7.69396 14.293 7.29746 14.293 6.8076C14.293 6.31773 13.8953 5.92123 13.406 5.92123Z" fill="#11476C"/>
</svg>
