<svg width="11" height="13" viewBox="0 0 11 13" fill="none" xmlns="http://www.w3.org/2000/svg">
<path d="M8.7832 1.507C7.81165 0.535447 6.51901 0 5.1436 0C3.76818 0 2.47554 0.535447 1.50399 1.507C-0.501405 3.5137 -0.501402 6.77993 1.50443 8.78663L4.68179 11.9631C4.80944 12.0908 4.97674 12.1544 5.14404 12.1544C5.31133 12.1544 5.47863 12.0908 5.60629 11.9631L8.78364 8.78663C10.7899 6.77993 10.7899 3.51414 8.7832 1.507ZM6.57914 6.58213C6.19575 6.96552 5.68558 7.17683 5.14317 7.17683C4.6012 7.17683 4.09102 6.96553 3.70763 6.58301C2.91775 5.79139 2.91732 4.50311 3.70763 3.71193C4.09145 3.32767 4.6012 3.11637 5.14317 3.11637C5.68558 3.11637 6.19532 3.32766 6.57958 3.71236C6.96254 4.09488 7.17339 4.60419 7.17339 5.1466C7.17339 5.68901 6.9621 6.19918 6.57914 6.58213Z" fill="#F32703"/>
</svg>
