<svg width="18" height="20" viewBox="0 0 18 20" fill="none" xmlns="http://www.w3.org/2000/svg">
<path d="M1.45581 14.7112C2.32992 14.7112 2.32921 8.52554 2.32921 8.52554C2.32921 5.10582 5.10074 2.33643 8.51835 2.33643C11.936 2.33643 14.7061 5.10582 14.7061 8.52554C14.7061 8.52554 14.7047 14.7112 15.5802 14.7112H14.7047H2.32992H1.45581Z" fill="#1E74D9" stroke="#1E74D9" stroke-width="1.5" stroke-miterlimit="10" stroke-linecap="round" stroke-linejoin="round"/>
<path d="M0.75 14.7109H16.2925" stroke="#1E74D9" stroke-width="1.5" stroke-miterlimit="10" stroke-linecap="round" stroke-linejoin="round"/>
<path d="M10.5117 16.396C10.5117 17.4979 9.61908 18.3905 8.51764 18.3909C7.41578 18.39 6.52319 17.4974 6.52319 16.396" fill="#1E74D9"/>
<path d="M10.5117 16.396C10.5117 17.4979 9.61908 18.3905 8.51764 18.3909C7.41578 18.39 6.52319 17.4974 6.52319 16.396H10.5117Z" stroke="#1E74D9" stroke-width="1.5" stroke-miterlimit="10" stroke-linecap="round" stroke-linejoin="round"/>
<path d="M8.51843 2.33634V0.75" stroke="#1E74D9" stroke-width="1.5" stroke-miterlimit="10" stroke-linecap="round" stroke-linejoin="round"/>
</svg>
