<svg width="13" height="13" viewBox="0 0 13 13" fill="none" xmlns="http://www.w3.org/2000/svg">
<path d="M10.198 0H1.95815C0.878776 0 0 0.878278 0 1.95765V10.1191V10.197C0 11.2759 0.878273 12.1541 1.95815 12.1541H10.198C11.2769 12.1541 12.1556 11.2764 12.1556 10.197V9.87071V1.95765C12.1551 0.878278 11.2769 0 10.198 0ZM1.50821 1.95765C1.50821 1.7098 1.7098 1.50821 1.95815 1.50821H10.198C10.4458 1.50821 10.6474 1.7098 10.6474 1.95765V8.26346L8.65207 6.60545C8.37356 6.37519 7.97037 6.37267 7.69085 6.60343L4.81118 8.97484L3.3824 7.77732C3.31202 7.7185 3.23409 7.67476 3.15215 7.6451C3.1436 7.64208 3.13455 7.64309 3.126 7.64057C3.0516 7.61695 2.97469 7.60136 2.89777 7.60086C2.89124 7.60086 2.88521 7.60388 2.87867 7.60388C2.71528 7.6079 2.55239 7.66169 2.41866 7.77229L1.50821 8.52137V1.95765Z" fill="#F7941E"/>
<path d="M4.55126 6.11709C5.39449 6.11709 6.07806 5.43352 6.07806 4.59029C6.07806 3.74705 5.39449 3.06348 4.55126 3.06348C3.70803 3.06348 3.02444 3.74705 3.02444 4.59029C3.02444 5.43352 3.70803 6.11709 4.55126 6.11709Z" fill="#F7941E"/>
</svg>
