<svg width="18" height="22" viewBox="0 0 18 22" fill="none" xmlns="http://www.w3.org/2000/svg">
<path d="M16.1532 7.07456H10.4794V1.9304C10.4794 1.10792 10.0468 0.37551 9.40402 0.105276C8.76926 -0.16288 8.04029 0.094206 7.62152 0.72891L0.345606 11.7926C-0.0341019 12.3691 -0.107633 13.1708 0.158335 13.8339C0.424303 14.4963 0.990135 14.9245 1.60134 14.9245H7.27513V20.068C7.27513 20.8911 7.70769 21.6236 8.35049 21.8938C8.52053 21.9652 8.69746 22.0005 8.87726 22.0005C9.36841 22.0005 9.82624 21.7337 10.1324 21.2695L17.4089 10.2072C17.7886 9.62931 17.8622 8.8283 17.5962 8.16588C17.3302 7.50346 16.7644 7.07456 16.1532 7.07456Z" fill="#1E74D9"/>
</svg>
