<svg width="13" height="14" viewBox="0 0 13 14" fill="none" xmlns="http://www.w3.org/2000/svg">
<path d="M11.7144 0H2.64193C1.18526 0 0 1.1857 0 2.64282V10.9894C0 12.4465 1.18526 13.6313 2.64193 13.6313H11.7144C12.0212 13.6313 12.2698 13.3828 12.2698 13.0764V0.555389C12.2698 0.248083 12.0208 0 11.7144 0ZM4.10309 3.12195H8.16669C8.47355 3.12195 8.72164 3.37094 8.72164 3.6769C8.72164 3.9842 8.4731 4.23228 8.16669 4.23228H4.10309C3.79623 4.23228 3.54814 3.98375 3.54814 3.6769C3.5477 3.37049 3.79623 3.12195 4.10309 3.12195ZM11.159 12.521H2.64193C1.79762 12.521 1.11034 11.8342 1.11034 10.9894C1.11034 10.1447 1.79762 9.45782 2.64193 9.45782H11.159V12.521Z" fill="white"/>
</svg>
