<svg width="21" height="22" viewBox="0 0 21 22" fill="none" xmlns="http://www.w3.org/2000/svg">
<path d="M20.375 13.2189C20.2498 12.7526 19.9502 12.3638 19.5338 12.1241L18.8584 11.7346L18.8492 9.48434L19.5184 9.09713C20.3796 8.59929 20.677 7.49299 20.1799 6.62945L18.6425 3.96507C18.1608 3.1338 17.003 2.82572 16.1756 3.30666L15.5011 3.69542L13.5481 2.58064V1.80545C13.5481 0.809765 12.7376 0 11.7412 0H8.66652C7.67007 0 6.85955 0.809765 6.85955 1.80545V2.58603L4.91735 3.71769L4.2474 3.33126C3.4146 2.85108 2.26066 3.16147 1.77896 3.99351L0.243182 6.6548C0.00117639 7.07351 -0.0626025 7.5606 0.0626261 8.02694C0.187855 8.49252 0.487482 8.88202 0.903886 9.12172L1.57842 9.51123L1.58841 11.7615L0.920017 12.1479C0.502076 12.3884 0.20323 12.7764 0.0772328 13.2435C-0.0479957 13.7098 0.0157543 14.1977 0.256992 14.6164L1.79509 17.2785C2.27526 18.109 3.42921 18.4201 4.26049 17.9392L4.93577 17.5489L6.88872 18.6644V19.4404C6.88872 20.4361 7.70004 21.2458 8.69649 21.2458H11.7688C12.7653 21.2458 13.5766 20.4361 13.5766 19.4396L13.5758 18.6598L15.518 17.5274L16.1895 17.9146C16.4637 18.0729 16.7757 18.1559 17.0914 18.1559C17.7352 18.1559 18.3345 17.8109 18.6571 17.2531L20.1952 14.5895C20.4372 14.1724 20.501 13.6853 20.375 13.2189ZM13.6565 10.6237C13.6565 12.519 12.1145 14.0609 10.2192 14.0609C8.32387 14.0609 6.78195 12.519 6.78195 10.6237C6.78195 8.72836 8.32387 7.18643 10.2192 7.18643C12.1145 7.18643 13.6565 8.72836 13.6565 10.6237Z" fill="#979797"/>
</svg>
