<svg width="15" height="15" viewBox="0 0 15 15" fill="none" xmlns="http://www.w3.org/2000/svg">
<path d="M13.4338 5.71329H12.373L12.2588 5.40833C12.205 5.26501 12.1449 5.12341 12.0792 4.98394L11.9384 4.68536L12.6938 3.92872C12.8904 3.73337 12.9983 3.47234 12.9983 3.19339C12.9983 2.91572 12.8904 2.65383 12.6942 2.4572L12.0148 1.77775C11.8297 1.5935 11.5614 1.48814 11.2782 1.48814C10.995 1.48814 10.7271 1.59349 10.5424 1.77903L9.7751 2.5472L9.47866 2.41157C9.34473 2.35015 9.20695 2.29342 9.06705 2.24309L8.75656 2.13176V1.04072C8.75656 0.467472 8.28865 0.000426524 7.71412 0H6.75402C6.18163 0 5.71544 0.467042 5.71544 1.04029L5.71585 2.1339L5.40492 2.24564C5.26459 2.29597 5.12639 2.35185 4.99203 2.4137L4.69518 2.54933L3.92913 1.78116C3.74487 1.59733 3.47745 1.49113 3.19466 1.49113C2.91145 1.49113 2.64276 1.59733 2.45764 1.78159L1.77818 2.46018C1.37469 2.86666 1.37512 3.52777 1.77818 3.93297L2.53655 4.69048L2.39324 4.9899C2.32798 5.12639 2.2687 5.268 2.21538 5.41174L2.10235 5.71798H1.03986C0.46576 5.71798 0 6.18631 0 6.76126L0.00127562 7.72008C0.00127562 8.2929 0.467904 8.7591 1.04158 8.7591L2.08144 8.76039L2.1919 9.0726C2.24649 9.22572 2.3075 9.37543 2.37361 9.52087L2.50755 9.81688L1.78032 10.5428C1.3764 10.9493 1.37725 11.6113 1.78245 12.0178L2.4602 12.6946C2.64488 12.8789 2.91358 12.9847 3.19594 12.9847C3.47958 12.9847 3.7483 12.8785 3.93299 12.6942L4.64827 11.9772L4.9464 12.1175C5.09781 12.1884 5.25266 12.2528 5.41004 12.3103L5.71841 12.4229V13.4308C5.71841 14.0058 6.18675 14.4728 6.7617 14.4728L7.72138 14.472C8.29463 14.472 8.76124 14.0049 8.76124 13.4317L8.7608 12.4178L9.07174 12.3065C9.2287 12.2502 9.38183 12.1867 9.53026 12.1167L9.82756 11.9768L10.5454 12.6908C10.7292 12.8751 10.9971 12.9804 11.279 12.9804C11.5627 12.9804 11.8326 12.8738 12.0182 12.6887L12.6951 12.0113C12.8921 11.8151 13.0005 11.5541 13.0005 11.2764C13.0005 10.9971 12.8921 10.7352 12.6959 10.539L11.9674 9.81218L12.1026 9.51576C12.1692 9.36989 12.2297 9.22102 12.2826 9.0679L12.3927 8.75484L13.4368 8.75185C13.714 8.75185 13.9742 8.64394 14.17 8.44731C14.3662 8.25111 14.4741 7.99051 14.4737 7.71199V6.75188C14.4754 6.18119 14.0079 5.71457 13.4338 5.71329ZM7.23855 9.26198C6.12191 9.26198 5.21342 8.35347 5.21342 7.23683C5.21342 6.12104 6.12191 5.21213 7.23855 5.21213C8.35476 5.21213 9.26368 6.12104 9.26368 7.23683C9.26368 8.35347 8.35476 9.26198 7.23855 9.26198Z" fill="white"/>
</svg>
