<svg width="20" height="15" viewBox="0 0 20 15" fill="none" xmlns="http://www.w3.org/2000/svg">
<path d="M9.82443 14.1645C4.46784 14.1645 0.322721 7.85498 0.148913 7.58634C-0.0496375 7.27961 -0.0496375 6.88486 0.148913 6.57813C0.322721 6.3095 4.46784 0 9.82443 0C15.1809 0 19.3261 6.3095 19.4999 6.57813C19.6984 6.88486 19.6984 7.27961 19.4999 7.58634C19.3261 7.85498 15.1809 14.1645 9.82443 14.1645ZM2.06322 7.0823C3.09834 8.48162 6.25622 12.3089 9.82443 12.3089C13.3924 12.3089 16.55 8.48223 17.5856 7.0823C16.5504 5.68299 13.3926 1.85567 9.82443 1.85567C6.25646 1.85561 3.09884 5.68231 2.06322 7.0823Z" fill="#F7941E"/>
<path d="M9.77292 10.444C7.91985 10.444 6.41223 8.93642 6.41223 7.08335C6.41223 5.23028 7.91985 3.72266 9.77292 3.72266C11.626 3.72266 13.1336 5.23028 13.1336 7.08335C13.1336 8.93642 11.626 10.444 9.77292 10.444ZM9.77292 5.57826C8.94303 5.57826 8.26784 6.25346 8.26784 7.08335C8.26784 7.91324 8.94303 8.58843 9.77292 8.58843C10.6028 8.58843 11.278 7.91324 11.278 7.08335C11.278 6.25346 10.6028 5.57826 9.77292 5.57826Z" fill="#F7941E"/>
</svg>
