<svg width="20" height="19" viewBox="0 0 20 19" fill="none" xmlns="http://www.w3.org/2000/svg">
<path d="M19.0592 2.97052L15.8848 2.35944C15.813 2.34554 15.7404 2.34013 15.6693 2.34013C15.667 2.34013 15.6654 2.33936 15.6631 2.33936C15.5194 2.34013 15.3788 2.36948 15.2444 2.42124C15.2375 2.42356 15.2297 2.42433 15.2236 2.42742C15.1517 2.45755 15.0822 2.49309 15.0165 2.5379C14.9848 2.55953 14.9671 2.59352 14.9369 2.61824C14.9076 2.64219 14.8721 2.65223 14.845 2.67927C14.8164 2.70786 14.8056 2.74494 14.7809 2.77584C14.7322 2.8361 14.6913 2.8979 14.655 2.96666C14.6187 3.03619 14.5901 3.10417 14.5692 3.17834C14.5592 3.2131 14.5352 3.24246 14.5283 3.27877L13.9172 6.45469C13.8283 6.91513 14.0261 7.38329 14.417 7.64132C14.6101 7.76879 14.8327 7.83291 15.0544 7.83291C15.2815 7.83291 15.5086 7.76647 15.7048 7.63359L16.5322 7.07273C16.7486 7.74561 16.8652 8.45326 16.8652 9.18022C16.8652 12.9641 13.7874 16.0435 10.0042 16.0435C9.54921 16.0435 9.09498 15.9987 8.65463 15.9122C8.025 15.7878 7.41701 16.1957 7.29185 16.8238C7.16748 17.4518 7.57537 18.0614 8.20345 18.1858C8.7929 18.3024 9.39857 18.3619 10.0042 18.3619C15.0652 18.3619 19.1828 14.2435 19.1828 9.181C19.1828 7.97892 18.9503 6.81392 18.5123 5.73236L19.4911 5.06952C19.8789 4.80686 20.0705 4.33638 19.9762 3.87749C19.882 3.4186 19.5197 3.05936 19.0592 2.97052Z" fill="white"/>
<path d="M5.5814 10.7082C5.19049 10.451 4.68139 10.4533 4.29358 10.7167L3.47082 11.2745C3.25759 10.6055 3.14249 9.90246 3.14249 9.18013C3.14249 5.39699 6.2203 2.3184 10.005 2.3184C10.4585 2.3184 10.9073 2.36244 11.3392 2.44896C11.9595 2.57411 12.5776 2.1693 12.7035 1.54045C12.8294 0.913146 12.4231 0.302065 11.795 0.17614C11.2133 0.0594863 10.6114 0 10.0058 0C4.94407 0 0.825644 4.11765 0.825644 9.17936C0.825644 10.3768 1.05663 11.5379 1.49158 12.6156L0.508898 13.2816C0.121081 13.5442 -0.0705257 14.0147 0.0237246 14.4736C0.117975 14.9325 0.480307 15.2902 0.940742 15.3782L4.11435 15.9893C4.18851 16.0032 4.26114 16.0102 4.33453 16.0102C4.47977 16.0102 4.61805 15.9793 4.74784 15.9291C4.78492 15.9152 4.81505 15.8889 4.85059 15.8711C4.94406 15.8232 5.03135 15.7707 5.1086 15.6996C5.12251 15.6873 5.13951 15.6834 5.15264 15.671C5.17891 15.6448 5.18895 15.6092 5.21213 15.5814C5.27007 15.5119 5.32107 15.4393 5.36125 15.3566C5.38906 15.3002 5.40914 15.2438 5.42691 15.1843C5.43927 15.1449 5.46322 15.1117 5.47095 15.0708L6.08279 11.8948C6.17086 11.4344 5.97308 10.9662 5.5814 10.7082Z" fill="white"/>
</svg>
