<svg width="17" height="16" viewBox="0 0 17 16" fill="none" xmlns="http://www.w3.org/2000/svg">
<path d="M16.0525 2.50181L13.3789 1.98713C13.3183 1.97542 13.2572 1.97087 13.1973 1.97087C13.1954 1.97087 13.1941 1.97021 13.1921 1.97021C13.0711 1.97087 12.9527 1.99559 12.8395 2.03919C12.8336 2.04114 12.8271 2.04179 12.8219 2.04439C12.7614 2.06977 12.7028 2.0997 12.6475 2.13744C12.6208 2.15566 12.6059 2.18428 12.5805 2.20511C12.5558 2.22528 12.5258 2.23373 12.5031 2.25651C12.479 2.28058 12.4699 2.31181 12.4491 2.33784C12.4081 2.38859 12.3736 2.44065 12.343 2.49856C12.3124 2.55712 12.2883 2.61438 12.2708 2.67684C12.2623 2.70612 12.2422 2.73085 12.2363 2.76143L11.7216 5.43633C11.6468 5.82412 11.8134 6.21843 12.1426 6.43575C12.3053 6.54311 12.4927 6.59712 12.6794 6.59712C12.8707 6.59712 13.062 6.54116 13.2273 6.42925L13.9241 5.95686C14.1063 6.52359 14.2046 7.11961 14.2046 7.73188C14.2046 10.9189 11.6123 13.5124 8.42597 13.5124C8.04273 13.5124 7.66015 13.4747 7.28927 13.4018C6.75897 13.2971 6.24689 13.6406 6.14148 14.1696C6.03672 14.6986 6.38027 15.212 6.90927 15.3167C7.40573 15.415 7.91585 15.4651 8.42597 15.4651C12.6885 15.4651 16.1566 11.9964 16.1566 7.73253C16.1566 6.72009 15.9607 5.73889 15.5918 4.82795L16.4162 4.26968C16.7428 4.04845 16.9042 3.65219 16.8248 3.2657C16.7454 2.8792 16.4403 2.57664 16.0525 2.50181Z" fill="white"/>
<path d="M4.70089 9.01892C4.37165 8.80224 3.94287 8.80419 3.61623 9.02607L2.92327 9.49586C2.74368 8.93238 2.64674 8.34027 2.64674 7.73189C2.64674 4.54557 5.239 1.95266 8.42663 1.95266C8.80857 1.95266 9.1866 1.98974 9.55033 2.06262C10.0728 2.16803 10.5934 1.82708 10.6994 1.29743C10.8055 0.76909 10.4632 0.254412 9.93424 0.148353C9.44428 0.0501019 8.93741 0 8.42728 0C4.1641 0 0.695392 3.46806 0.695392 7.73124C0.695392 8.73978 0.889942 9.71773 1.25627 10.6254L0.428616 11.1863C0.10198 11.4075 -0.0593997 11.8038 0.0199818 12.1903C0.0993634 12.5768 0.404535 12.878 0.792333 12.9522L3.46528 13.4669C3.52774 13.4786 3.58891 13.4845 3.65072 13.4845C3.77305 13.4845 3.88952 13.4584 3.99883 13.4161C4.03007 13.4044 4.05544 13.3823 4.08537 13.3673C4.1641 13.327 4.23762 13.2827 4.30268 13.2229C4.31439 13.2125 4.32871 13.2092 4.33978 13.1988C4.3619 13.1767 4.37035 13.1468 4.38987 13.1233C4.43867 13.0648 4.48163 13.0036 4.51547 12.934C4.53889 12.8865 4.5558 12.839 4.57077 12.7889C4.58118 12.7557 4.60136 12.7277 4.60786 12.6932L5.12319 10.0183C5.19736 9.63054 5.03078 9.23624 4.70089 9.01892Z" fill="white"/>
</svg>
