<svg width="21" height="16" viewBox="0 0 21 16" fill="none" xmlns="http://www.w3.org/2000/svg">
<path d="M18.7488 3.53736H18.3231C17.8566 3.53736 17.4331 3.72331 17.1182 4.02105C17.015 3.72331 16.9075 3.4073 16.7968 3.09774C16.7882 3.07624 16.7807 3.0569 16.7742 3.0354C16.7463 2.95801 16.7194 2.87955 16.6926 2.80108C16.6807 2.77206 16.67 2.74304 16.6614 2.71402C16.6367 2.6463 16.6119 2.57858 16.5883 2.51194C16.5732 2.4754 16.5614 2.43778 16.5474 2.40016C16.5259 2.34212 16.5077 2.28515 16.4851 2.22926C16.4733 2.19486 16.4604 2.16047 16.4475 2.12714C16.4249 2.06588 16.4034 2.00784 16.3819 1.95087C16.3701 1.92292 16.3593 1.89175 16.3507 1.86595C16.3185 1.78426 16.2895 1.70687 16.2615 1.63486C15.9219 0.768524 14.674 0.284837 12.2233 0.10856C12.2233 0.10856 11.4881 0 10.2509 0C8.97614 0 8.28071 0.10856 8.28071 0.10856C5.82681 0.285912 4.58212 0.768524 4.24247 1.63486C4.19517 1.75847 4.14143 1.8982 4.08554 2.04438C4.08446 2.0519 4.08124 2.05835 4.07909 2.0648C4.02534 2.21206 3.96623 2.36791 3.90926 2.53129C3.90603 2.54096 3.90066 2.55279 3.89851 2.56139C3.83939 2.72369 3.78028 2.88814 3.72116 3.05797C3.71579 3.07409 3.70934 3.08807 3.70396 3.10312C3.64485 3.27509 3.58358 3.44922 3.52231 3.62335C3.52124 3.6298 3.51801 3.63625 3.51694 3.64269C3.47179 3.76953 3.42772 3.89636 3.3858 4.01997C3.07087 3.72224 2.64738 3.53628 2.17981 3.53628H1.75632C0.787872 3.53628 0 4.32415 0 5.2926C0 5.31302 0.00107514 5.33452 0.00322485 5.35387C0.0548181 5.83218 0.377275 6.35026 0.958774 6.35026H1.93689C1.73482 6.54051 1.53705 6.72861 1.38657 6.87909C0.739504 7.52401 0.80937 8.65261 0.833017 8.89875V12.0793C0.833017 12.3856 1.07916 12.6307 1.38334 12.6382V12.6403H1.58757V14.76C1.58757 15.0211 1.80039 15.2329 2.06158 15.2329H5.11095C5.37322 15.2329 5.58604 15.0211 5.58604 14.76V12.6403H6.11702H14.3913H14.9223V14.76C14.9223 15.0211 15.1351 15.2329 15.3973 15.2329H18.4467C18.709 15.2329 18.9207 15.0211 18.9207 14.76V12.6403H19.1228V12.6382C19.427 12.6328 19.6731 12.3856 19.6731 12.0793V8.89875C19.6957 8.65261 19.7666 7.52401 19.1207 6.87909C18.9691 6.72861 18.7724 6.54159 18.5682 6.35026H19.5452C20.1299 6.35026 20.4524 5.83218 20.5018 5.35279C20.5061 5.33345 20.5072 5.31302 20.5072 5.2926C20.5061 4.32415 19.7172 3.53736 18.7488 3.53736ZM4.37897 10.927C3.53521 10.927 2.85053 10.2412 2.85053 9.39963C2.85053 8.55587 3.53628 7.87226 4.37897 7.87226C5.22166 7.87226 5.90742 8.55694 5.90742 9.39963C5.90635 10.2412 5.22166 10.927 4.37897 10.927ZM4.15648 5.22811C4.15755 5.22381 4.15863 5.21951 4.16078 5.21521C4.19625 5.11418 4.23279 5.00346 4.27149 4.89168C4.28009 4.86481 4.28869 4.83686 4.29836 4.80999C4.38005 4.57244 4.46711 4.31878 4.55632 4.05974C4.56707 4.03179 4.57675 4.00062 4.58642 3.97375C4.63156 3.84369 4.67671 3.71471 4.72293 3.5868V3.5825C4.76807 3.45782 4.81214 3.33099 4.85621 3.20845C4.86803 3.17406 4.87986 3.14074 4.8949 3.10419C4.93575 2.98703 4.97767 2.87095 5.01851 2.75916C5.02066 2.75486 5.02174 2.74949 5.02496 2.74411C5.06688 2.63018 5.10665 2.52054 5.14535 2.41413C5.15717 2.38834 5.16577 2.36361 5.17544 2.33674C5.21414 2.23356 5.25283 2.13359 5.28615 2.04438C5.3313 1.93045 5.66128 1.38012 8.07004 1.25436C8.75042 1.21889 9.52754 1.15332 10.2509 1.15332C10.9668 1.15332 11.0388 1.1716 11.5805 1.19847C11.8632 1.22534 12.1094 1.22964 12.1867 1.23609C14.8115 1.43279 15.1673 1.92722 15.2146 2.04545C15.2512 2.13467 15.2866 2.2357 15.3275 2.34104C15.3404 2.37759 15.3533 2.41413 15.3694 2.45175C15.3952 2.52699 15.4253 2.60438 15.4532 2.68499C15.4694 2.72584 15.4833 2.76561 15.4973 2.80645C15.536 2.91179 15.5758 3.01928 15.6145 3.12784C15.6317 3.17621 15.6478 3.22672 15.6671 3.27402C15.6972 3.36216 15.7284 3.44815 15.7596 3.53628C15.7811 3.59648 15.8004 3.65667 15.823 3.71793C15.8466 3.78565 15.8703 3.85122 15.8929 3.91893C15.9154 3.98127 15.9369 4.04362 15.9584 4.10596C15.996 4.21129 16.0294 4.3134 16.0659 4.41444C16.0885 4.47571 16.1068 4.53483 16.1282 4.59502C16.1508 4.66381 16.1745 4.73153 16.1981 4.79709C16.2185 4.85944 16.239 4.9164 16.2594 4.97659C16.2766 5.02066 16.2884 5.06366 16.3045 5.10665C16.3174 5.14964 16.3314 5.19049 16.3454 5.23026H4.15648V5.22811ZM16.0616 7.87119C16.9043 7.87119 17.589 8.55587 17.589 9.39856C17.589 10.2412 16.9043 10.9259 16.0616 10.9259C15.2168 10.9259 14.5332 10.2402 14.5332 9.39856C14.5332 8.5548 15.2168 7.87119 16.0616 7.87119Z" fill="#F32703"/>
</svg>
