<svg width="17" height="17" viewBox="0 0 17 17" fill="none" xmlns="http://www.w3.org/2000/svg">
<path d="M7.95234 1.86133H2.29535C1.44098 1.86133 0.75 2.55296 0.75 3.40797V13.9916C0.75 14.8453 1.44098 15.5376 2.29535 15.5376H12.8803C13.734 15.5376 14.4263 14.846 14.4263 13.9916V8.3346" stroke="#1E74D9" stroke-width="1.5" stroke-miterlimit="10" stroke-linecap="round" stroke-linejoin="round"/>
<path d="M14.0617 5.18954L11.0968 2.22461" stroke="#1E74D9" stroke-width="1.5" stroke-miterlimit="10" stroke-linecap="round" stroke-linejoin="round"/>
<path d="M7.03799 6.28415L11.6411 1.68041L12.3114 1.01009C12.6582 0.66395 13.222 0.662659 13.5687 1.01009L15.2775 2.71882C15.6242 3.06625 15.6242 3.63001 15.2775 3.97743L15.2368 4.01683L14.6071 4.64581L10.0021 9.24892L6.65503 9.63121L7.03799 6.28415Z" stroke="#1E74D9" stroke-width="1.5" stroke-miterlimit="10" stroke-linecap="round" stroke-linejoin="round"/>
</svg>
