<svg width="16" height="17" viewBox="0 0 16 17" fill="none" xmlns="http://www.w3.org/2000/svg">
<path d="M7.83934 10.7697C9.29049 10.7697 10.4669 9.59333 10.4669 8.14218C10.4669 6.69103 9.29049 5.51465 7.83934 5.51465C6.38819 5.51465 5.21179 6.69103 5.21179 8.14218C5.21179 9.59333 6.38819 10.7697 7.83934 10.7697Z" stroke="#16A34A" stroke-width="1.5" stroke-miterlimit="10" stroke-linecap="round" stroke-linejoin="round"/>
<path d="M11.804 3.61037L12.5965 3.15277C12.9688 2.93722 13.4449 3.06458 13.6604 3.43689L14.8131 5.43507C15.0281 5.80854 14.8996 6.28403 14.5278 6.499L13.7359 6.95718L13.7463 9.30981L14.5388 9.76742C14.9111 9.98182 15.0396 10.4579 14.8246 10.8308L13.6708 12.829C13.4558 13.2007 12.9798 13.3286 12.6069 13.1137L11.8133 12.656L9.78166 13.841L9.78222 14.7574C9.78222 15.1862 9.43413 15.5354 9.00245 15.5354H6.69765C6.26713 15.5354 5.91788 15.1868 5.91788 14.7568V13.841L3.87475 12.6739L3.0817 13.1321C2.70938 13.3471 2.23448 13.2197 2.01951 12.8474L0.865667 10.8504C0.650692 10.4781 0.778633 10.0003 1.15037 9.78588L1.94228 9.32826L1.93248 6.97563L1.14001 6.51744C0.767697 6.30304 0.639158 5.82755 0.85471 5.45409L2.00739 3.45707C2.22352 3.08417 2.69901 2.95681 3.0719 3.17178L3.86437 3.62882L5.89597 2.44386V1.52806C5.89597 1.09811 6.24465 0.75 6.67517 0.75H8.9817C9.41165 0.75 9.7609 1.09811 9.7609 1.52806V2.44386L11.804 3.61037Z" stroke="#16A34A" stroke-width="1.5" stroke-miterlimit="10" stroke-linecap="round" stroke-linejoin="round"/>
</svg>
