<svg width="18" height="18" viewBox="0 0 18 18" fill="none" xmlns="http://www.w3.org/2000/svg">
<path d="M8.87726 0C3.98236 0 0 3.98236 0 8.87727C0 13.7722 3.98236 17.7545 8.87726 17.7545C13.7722 17.7545 17.7545 13.7722 17.7545 8.87727C17.7545 3.98236 13.7722 0 8.87726 0ZM11.8499 9.89332H8.87726C8.31642 9.89332 7.86068 9.43757 7.86068 8.87673V4.16138C7.86068 3.60108 8.31642 3.1448 8.87726 3.1448C9.43809 3.1448 9.89384 3.60108 9.89384 4.16138V7.86015H11.8499C12.4107 7.86015 12.8665 8.3159 12.8665 8.87673C12.8665 9.43757 12.4102 9.89332 11.8499 9.89332Z" fill="#16A34A"/>
</svg>
