<svg width="24" height="18" viewBox="0 0 24 18" fill="none" xmlns="http://www.w3.org/2000/svg">
<path d="M16.7908 6.86764L18.0194 8.78562L22.3116 5.89551" stroke="white" stroke-width="2" stroke-linecap="round" stroke-linejoin="round"/>
<path d="M17.6335 16.7328C17.5838 13.6716 15.9648 10.9915 13.5492 9.45068C12.3436 10.6768 10.6686 11.4391 8.81736 11.4391C6.96673 11.4391 5.29179 10.6768 4.08617 9.45131C1.63273 11.0164 0 13.7566 0 16.8768C0 17.3015 0.343929 17.6448 0.767942 17.6448H16.8662C16.8705 17.6441 16.8755 17.6441 16.8792 17.6448C17.3038 17.6448 17.6472 17.3008 17.6472 16.8768C17.6465 16.8278 17.6422 16.7793 17.6335 16.7328Z" fill="white"/>
<path d="M8.81668 9.59648C11.4667 9.59648 13.6149 7.44824 13.6149 4.79825C13.6149 2.14825 11.4667 0 8.81668 0C6.16668 0 4.01843 2.14825 4.01843 4.79825C4.01843 7.44824 6.16668 9.59648 8.81668 9.59648Z" fill="white"/>
</svg>
