<svg width="22" height="22" viewBox="0 0 22 22" fill="none" xmlns="http://www.w3.org/2000/svg">
<path d="M9.89908 9.39369C9.8712 7.67518 8.96229 6.17067 7.60623 5.30566C6.92943 5.99397 5.98914 6.42194 4.94989 6.42194C3.91098 6.42194 2.9707 5.99397 2.29389 5.30602C0.916582 6.18461 0 7.72293 0 9.47454C0 9.71293 0.193074 9.90565 0.431107 9.90565H9.46832C9.47076 9.9053 9.47355 9.9053 9.47564 9.90565C9.71402 9.90565 9.90675 9.71258 9.90675 9.47454C9.9064 9.44701 9.90396 9.41983 9.89908 9.39369Z" fill="white"/>
<path d="M4.94956 5.38727C6.43721 5.38727 7.64319 4.18129 7.64319 2.69364C7.64319 1.20598 6.43721 0 4.94956 0C3.4619 0 2.25592 1.20598 2.25592 2.69364C2.25592 4.18129 3.4619 5.38727 4.94956 5.38727Z" fill="white"/>
<path d="M21.8969 9.39369C21.869 7.67518 20.9601 6.17067 19.604 5.30566C18.9272 5.99397 17.9869 6.42194 16.9477 6.42194C15.9088 6.42194 14.9685 5.99397 14.2917 5.30602C12.9144 6.18461 11.9978 7.72293 11.9978 9.47454C11.9978 9.71293 12.1909 9.90565 12.4289 9.90565H21.4661C21.4686 9.9053 21.4714 9.9053 21.4734 9.90565C21.7118 9.90565 21.9046 9.71258 21.9046 9.47454C21.9042 9.44701 21.9018 9.41983 21.8969 9.39369Z" fill="white"/>
<path d="M16.9473 5.38727C18.435 5.38727 19.6409 4.18129 19.6409 2.69364C19.6409 1.20598 18.435 0 16.9473 0C15.4596 0 14.2537 1.20598 14.2537 2.69364C14.2537 4.18129 15.4596 5.38727 16.9473 5.38727Z" fill="white"/>
<path d="M15.898 21.3839C15.8701 19.6654 14.9612 18.1609 13.6051 17.2959C12.9283 17.9842 11.988 18.4122 10.9488 18.4122C9.90988 18.4122 8.9696 17.9842 8.2928 17.2962C6.91548 18.1748 5.9989 19.7132 5.9989 21.4648C5.9989 21.7032 6.19198 21.8959 6.43001 21.8959H15.4672C15.4697 21.8955 15.4725 21.8955 15.4745 21.8959C15.7129 21.8959 15.9056 21.7028 15.9056 21.4648C15.9053 21.4372 15.9029 21.4101 15.898 21.3839Z" fill="white"/>
<path d="M10.9484 17.3775C12.4361 17.3775 13.642 16.1715 13.642 14.6839C13.642 13.1962 12.4361 11.9902 10.9484 11.9902C9.46074 11.9902 8.25476 13.1962 8.25476 14.6839C8.25476 16.1715 9.46074 17.3775 10.9484 17.3775Z" fill="white"/>
</svg>
