<svg width="23" height="18" viewBox="0 0 23 18" fill="none" xmlns="http://www.w3.org/2000/svg">
<path d="M13.6025 10.0894C15.7034 11.5708 17.0892 13.9935 17.1338 16.7407V16.7827L17.1416 16.8247C17.1442 16.8389 17.146 16.8571 17.1465 16.8794C17.1451 17.0258 17.0275 17.1432 16.8809 17.144C16.8739 17.1439 16.8671 17.1449 16.8604 17.145H0.767578C0.619611 17.1448 0.5 17.0246 0.5 16.8765C0.500118 14.0743 1.8967 11.5953 4.03223 10.0894C5.29869 11.2359 6.97643 11.939 8.81738 11.939C10.6586 11.939 12.3361 11.2361 13.6025 10.0894Z" fill="white" stroke="white"/>
<path d="M8.81628 0.5C11.19 0.5 13.1149 2.42418 13.1151 4.79785C13.1151 7.1717 11.1901 9.09668 8.81628 9.09668C6.44261 9.09647 4.51843 7.17157 4.51843 4.79785C4.51865 2.42431 6.44274 0.500213 8.81628 0.5Z" fill="white" stroke="white"/>
<path d="M21.2321 5.15527L19.0114 7.37592M19.0114 7.37592L16.7909 9.59644M19.0114 7.37592L16.7908 5.15527M19.0114 7.37592L21.2319 9.59644" stroke="white" stroke-width="2" stroke-linecap="round" stroke-linejoin="round"/>
</svg>
