<svg width="24" height="18" viewBox="0 0 24 18" fill="none" xmlns="http://www.w3.org/2000/svg">
<path d="M19.8204 3.96533C17.9496 3.96533 16.4276 5.48736 16.4276 7.35816C16.4276 9.22895 17.9496 10.751 19.8204 10.751C21.6912 10.751 23.2133 9.22895 23.2133 7.35816C23.2133 5.48736 21.6912 3.96533 19.8204 3.96533ZM20.9566 7.74648H19.8204C19.6061 7.74648 19.4319 7.5723 19.4319 7.35795V5.55578C19.4319 5.34164 19.6061 5.16725 19.8204 5.16725C20.0348 5.16725 20.209 5.34164 20.209 5.55578V6.96942H20.9566C21.1709 6.96942 21.3451 7.14361 21.3451 7.35795C21.3451 7.5723 21.1707 7.74648 20.9566 7.74648Z" fill="white"/>
<path d="M17.6332 16.7327C17.5836 13.6715 15.9645 10.9915 13.549 9.45068C12.3434 10.6768 10.6685 11.4391 8.81723 11.4391C6.96662 11.4391 5.29171 10.6768 4.08611 9.45131C1.63271 11.0163 0 13.7566 0 16.8767C0 17.3013 0.343924 17.6446 0.767931 17.6446H16.8659C16.8703 17.644 16.8752 17.644 16.879 17.6446C17.3036 17.6446 17.6469 17.3007 17.6469 16.8767C17.6463 16.8277 17.6419 16.7792 17.6332 16.7327Z" fill="white"/>
<path d="M8.81648 9.59634C11.4664 9.59634 13.6147 7.44813 13.6147 4.79817C13.6147 2.14822 11.4664 0 8.81648 0C6.16653 0 4.01831 2.14822 4.01831 4.79817C4.01831 7.44813 6.16653 9.59634 8.81648 9.59634Z" fill="white"/>
</svg>
