<svg width="31" height="23" viewBox="0 0 31 23" fill="none" xmlns="http://www.w3.org/2000/svg">
<path d="M30.1436 10.921C29.4926 9.09802 25.7056 0 15.1136 0C4.52764 0 0.738636 9.09402 0.0876359 10.917C-0.0303641 11.247 -0.0293663 11.609 0.0916337 11.939C0.761634 13.761 4.63164 22.851 15.1136 22.851C25.7086 22.851 29.4926 13.753 30.1436 11.929C30.2596 11.604 30.2596 11.247 30.1436 10.921ZM15.1146 16.955C12.0646 16.955 9.58364 14.475 9.58364 11.426C9.58364 8.37499 12.0646 5.89301 15.1146 5.89301C18.1656 5.89301 20.6467 8.37499 20.6467 11.426C20.6467 14.475 18.1646 16.955 15.1146 16.955Z" fill="#313133"/>
</svg>
