<svg width="21" height="18" viewBox="0 0 21 18" fill="none" xmlns="http://www.w3.org/2000/svg">
<path d="M8.73153 4.36573C8.73153 1.95856 6.77232 1.59036e-07 4.36451 1.87748e-07C1.95798 2.16446e-07 4.38924e-05 1.95856 4.39211e-05 4.36573C4.39498e-05 6.7729 1.95798 8.73146 4.36451 8.73146C4.95947 8.73146 5.52642 8.61121 6.04375 8.3955L6.84613 9.62866C6.00492 10.4253 5.47678 11.5484 5.47678 12.7962C5.47678 15.2034 7.43599 17.1613 9.84189 17.1613C12.2497 17.1613 14.2095 15.2034 14.2095 12.7962C14.2095 11.6038 13.7272 10.5214 12.949 9.7324L13.9276 8.33186C14.4812 8.58639 15.0953 8.7321 15.7437 8.7321C18.1502 8.7321 20.1088 6.77354 20.1088 4.36637C20.1088 1.9592 18.1502 0.00064084 15.7437 0.000640869C13.3352 0.000640898 11.3773 1.9592 11.3773 4.36637C11.3773 5.55946 11.8603 6.64118 12.6378 7.42957L11.6573 8.83011C11.1037 8.57622 10.4903 8.42985 9.84189 8.42985C9.24757 8.42985 8.68124 8.55013 8.16392 8.76647L7.36154 7.53329C8.20274 6.73663 8.73153 5.6129 8.73153 4.36573Z" fill="white"/>
</svg>
