<svg width="24" height="21" viewBox="0 0 24 21" fill="none" xmlns="http://www.w3.org/2000/svg">
<path d="M22.7279 1L20.5073 3.22064M20.5073 3.22064L18.2867 5.44117M20.5073 3.22064L18.2866 1M20.5073 3.22064L22.7278 5.44117" stroke="white" stroke-width="2" stroke-linecap="round" stroke-linejoin="round"/>
<path d="M18.7488 8.97877H18.3231C17.8566 8.97877 17.4331 9.16472 17.1182 9.46245C17.015 9.16472 16.9075 8.84871 16.7968 8.53915C16.7882 8.51765 16.7807 8.4983 16.7742 8.47681C16.7463 8.39942 16.7194 8.32095 16.6926 8.24249C16.6807 8.21347 16.67 8.18444 16.6614 8.15542C16.6367 8.08771 16.6119 8.01999 16.5883 7.95335C16.5732 7.9168 16.5614 7.87918 16.5474 7.84156C16.5259 7.78352 16.5077 7.72655 16.4851 7.67066C16.4733 7.63627 16.4604 7.60187 16.4475 7.56855C16.4249 7.50728 16.4034 7.44924 16.3819 7.39227C16.3701 7.36433 16.3593 7.33316 16.3507 7.30736C16.3185 7.22567 16.2895 7.14828 16.2615 7.07627C15.9219 6.20993 14.674 5.72624 12.2233 5.54997C12.2233 5.54997 11.4881 5.44141 10.2509 5.44141C8.97614 5.44141 8.28071 5.54997 8.28071 5.54997C5.82681 5.72732 4.58212 6.20993 4.24247 7.07627C4.19517 7.19987 4.14143 7.33961 4.08554 7.48579C4.08446 7.49331 4.08124 7.49976 4.07909 7.50621C4.02534 7.65346 3.96623 7.80932 3.90926 7.9727C3.90603 7.98237 3.90066 7.99419 3.89851 8.00279C3.83939 8.1651 3.78028 8.32955 3.72116 8.49938C3.71579 8.5155 3.70934 8.52947 3.70396 8.54452C3.64485 8.7165 3.58358 8.89063 3.52231 9.06475C3.52124 9.0712 3.51801 9.07765 3.51694 9.0841C3.47179 9.21093 3.42772 9.33777 3.3858 9.46138C3.07087 9.16364 2.64738 8.97769 2.17981 8.97769H1.75632C0.787872 8.97769 0 9.76556 0 10.734C0 10.7544 0.00107514 10.7759 0.00322485 10.7953C0.0548181 11.2736 0.377275 11.7917 0.958774 11.7917H1.93689C1.73482 11.9819 1.53705 12.17 1.38657 12.3205C0.739504 12.9654 0.80937 14.094 0.833017 14.3402V17.5207C0.833017 17.827 1.07916 18.0721 1.38334 18.0796V18.0817H1.58757V20.2014C1.58757 20.4625 1.80039 20.6743 2.06158 20.6743H5.11095C5.37322 20.6743 5.58604 20.4625 5.58604 20.2014V18.0817H6.11702H14.3913H14.9223V20.2014C14.9223 20.4625 15.1351 20.6743 15.3973 20.6743H18.4467C18.709 20.6743 18.9207 20.4625 18.9207 20.2014V18.0817H19.1228V18.0796C19.427 18.0742 19.6731 17.827 19.6731 17.5207V14.3402C19.6957 14.094 19.7666 12.9654 19.1207 12.3205C18.9691 12.17 18.7724 11.983 18.5682 11.7917H19.5452C20.1299 11.7917 20.4524 11.2736 20.5018 10.7942C20.5061 10.7749 20.5072 10.7544 20.5072 10.734C20.5061 9.76556 19.7172 8.97877 18.7488 8.97877ZM4.37897 16.3684C3.53521 16.3684 2.85053 15.6827 2.85053 14.841C2.85053 13.9973 3.53628 13.3137 4.37897 13.3137C5.22166 13.3137 5.90742 13.9984 5.90742 14.841C5.90635 15.6827 5.22166 16.3684 4.37897 16.3684ZM4.15648 10.6695C4.15755 10.6652 4.15863 10.6609 4.16078 10.6566C4.19625 10.5556 4.23279 10.4449 4.27149 10.3331C4.28009 10.3062 4.28869 10.2783 4.29836 10.2514C4.38005 10.0139 4.46711 9.76019 4.55632 9.50115C4.56707 9.4732 4.57675 9.44203 4.58642 9.41516C4.63156 9.2851 4.67671 9.15612 4.72293 9.02821V9.02391C4.76807 8.89923 4.81214 8.77239 4.85621 8.64986C4.86803 8.61546 4.87986 8.58214 4.8949 8.5456C4.93575 8.42844 4.97767 8.31235 5.01851 8.20057C5.02066 8.19627 5.02174 8.19089 5.02496 8.18552C5.06688 8.07158 5.10665 7.96195 5.14535 7.85554C5.15717 7.82974 5.16577 7.80502 5.17544 7.77815C5.21414 7.67496 5.25283 7.575 5.28615 7.48579C5.3313 7.37185 5.66128 6.82152 8.07004 6.69577C8.75042 6.6603 9.52754 6.59473 10.2509 6.59473C10.9668 6.59473 11.0388 6.613 11.5805 6.63987C11.8632 6.66674 12.1094 6.67104 12.1867 6.67749C14.8115 6.87419 15.1673 7.36863 15.2146 7.48686C15.2512 7.57607 15.2866 7.67711 15.3275 7.78245C15.3404 7.81899 15.3533 7.85554 15.3694 7.89316C15.3952 7.9684 15.4253 8.04579 15.4532 8.1264C15.4694 8.16725 15.4833 8.20702 15.4973 8.24786C15.536 8.3532 15.5758 8.46068 15.6145 8.56924C15.6317 8.61761 15.6478 8.66813 15.6671 8.71542C15.6972 8.80356 15.7284 8.88955 15.7596 8.97769C15.7811 9.03788 15.8004 9.09807 15.823 9.15934C15.8466 9.22706 15.8703 9.29262 15.8929 9.36034C15.9154 9.42268 15.9369 9.48502 15.9584 9.54736C15.996 9.6527 16.0294 9.75481 16.0659 9.85585C16.0885 9.91711 16.1068 9.97623 16.1282 10.0364C16.1508 10.1052 16.1745 10.1729 16.1981 10.2385C16.2185 10.3008 16.239 10.3578 16.2594 10.418C16.2766 10.4621 16.2884 10.5051 16.3045 10.5481C16.3174 10.5911 16.3314 10.6319 16.3454 10.6717H4.15648V10.6695ZM16.0616 13.3126C16.9043 13.3126 17.589 13.9973 17.589 14.84C17.589 15.6827 16.9043 16.3673 16.0616 16.3673C15.2168 16.3673 14.5332 15.6816 14.5332 14.84C14.5332 13.9962 15.2168 13.3126 16.0616 13.3126Z" fill="white"/>
</svg>
