<svg width="18" height="18" viewBox="0 0 18 18" fill="none" xmlns="http://www.w3.org/2000/svg">
<path d="M17.0284 0.358386C16.5506 -0.119462 15.7767 -0.119462 15.2989 0.358386L8.6938 6.96427L2.08955 0.358386C1.61171 -0.119462 0.837852 -0.119462 0.360004 0.358386C-0.117844 0.835419 -0.117844 1.61009 0.360004 2.08793L6.96425 8.69382L0.358386 15.3005C-0.119462 15.7784 -0.119462 16.553 0.358386 17.0301C0.59731 17.269 0.910443 17.388 1.22357 17.388C1.5367 17.388 1.84981 17.269 2.08873 17.0301L8.69463 10.4234L15.2997 17.0301C15.5386 17.269 15.8518 17.388 16.1649 17.388C16.478 17.388 16.7911 17.269 17.03 17.0301C17.5079 16.553 17.5079 15.7784 17.03 15.3005L10.425 8.69382L17.03 2.08793C17.5063 1.61009 17.5063 0.835419 17.0284 0.358386Z" fill="white"/>
</svg>
