<svg width="25" height="20" viewBox="0 0 25 20" fill="none" xmlns="http://www.w3.org/2000/svg">
<path d="M18.7488 7.4275H18.3231C17.8566 7.4275 17.4331 7.61345 17.1182 7.91118C17.015 7.61345 16.9075 7.29744 16.7968 6.98788C16.7882 6.96638 16.7807 6.94703 16.7742 6.92554C16.7463 6.84815 16.7194 6.76968 16.6926 6.69122C16.6807 6.6622 16.67 6.63317 16.6614 6.60415C16.6367 6.53644 16.6119 6.46872 16.5883 6.40208C16.5732 6.36554 16.5614 6.32791 16.5474 6.29029C16.5259 6.23225 16.5077 6.17528 16.4851 6.11939C16.4733 6.085 16.4604 6.0506 16.4475 6.01728C16.4249 5.95601 16.4034 5.89797 16.3819 5.841C16.3701 5.81306 16.3593 5.78189 16.3507 5.75609C16.3185 5.6744 16.2895 5.59701 16.2615 5.525C15.9219 4.65866 14.674 4.17497 12.2233 3.9987C12.2233 3.9987 11.4881 3.89014 10.2509 3.89014C8.97614 3.89014 8.28071 3.9987 8.28071 3.9987C5.82681 4.17605 4.58212 4.65866 4.24247 5.525C4.19517 5.6486 4.14143 5.78834 4.08554 5.93452C4.08446 5.94204 4.08124 5.94849 4.07909 5.95494C4.02534 6.10219 3.96623 6.25805 3.90926 6.42143C3.90603 6.4311 3.90066 6.44292 3.89851 6.45152C3.83939 6.61383 3.78028 6.77828 3.72116 6.94811C3.71579 6.96423 3.70934 6.97821 3.70396 6.99325C3.64485 7.16523 3.58358 7.33936 3.52231 7.51348C3.52124 7.51993 3.51801 7.52638 3.51694 7.53283C3.47179 7.65966 3.42772 7.7865 3.3858 7.91011C3.07087 7.61237 2.64738 7.42642 2.17981 7.42642H1.75632C0.787872 7.42642 0 8.21429 0 9.18274C0 9.20316 0.00107514 9.22466 0.00322485 9.244C0.0548181 9.72232 0.377275 10.2404 0.958774 10.2404H1.93689C1.73482 10.4306 1.53705 10.6188 1.38657 10.7692C0.739504 11.4141 0.80937 12.5427 0.833017 12.7889V15.9694C0.833017 16.2757 1.07916 16.5208 1.38334 16.5283V16.5305H1.58757V18.6501C1.58757 18.9113 1.80039 19.123 2.06158 19.123H5.11095C5.37322 19.123 5.58604 18.9113 5.58604 18.6501V16.5305H6.11702H14.3913H14.9223V18.6501C14.9223 18.9113 15.1351 19.123 15.3973 19.123H18.4467C18.709 19.123 18.9207 18.9113 18.9207 18.6501V16.5305H19.1228V16.5283C19.427 16.5229 19.6731 16.2757 19.6731 15.9694V12.7889C19.6957 12.5427 19.7666 11.4141 19.1207 10.7692C18.9691 10.6188 18.7724 10.4317 18.5682 10.2404H19.5452C20.1299 10.2404 20.4524 9.72232 20.5018 9.24293C20.5061 9.22358 20.5072 9.20316 20.5072 9.18274C20.5061 8.21429 19.7172 7.4275 18.7488 7.4275ZM4.37897 14.8171C3.53521 14.8171 2.85053 14.1314 2.85053 13.2898C2.85053 12.446 3.53628 11.7624 4.37897 11.7624C5.22166 11.7624 5.90742 12.4471 5.90742 13.2898C5.90635 14.1314 5.22166 14.8171 4.37897 14.8171ZM4.15648 9.11825C4.15755 9.11395 4.15863 9.10965 4.16078 9.10535C4.19625 9.00431 4.23279 8.8936 4.27149 8.78182C4.28009 8.75494 4.28869 8.727 4.29836 8.70013C4.38005 8.46258 4.46711 8.20892 4.55632 7.94988C4.56707 7.92193 4.57675 7.89076 4.58642 7.86389C4.63156 7.73383 4.67671 7.60485 4.72293 7.47694V7.47264C4.76807 7.34796 4.81214 7.22112 4.85621 7.09859C4.86803 7.06419 4.87986 7.03087 4.8949 6.99433C4.93575 6.87717 4.97767 6.76108 5.01851 6.6493C5.02066 6.645 5.02174 6.63962 5.02496 6.63425C5.06688 6.52031 5.10665 6.41068 5.14535 6.30427C5.15717 6.27847 5.16577 6.25375 5.17544 6.22688C5.21414 6.12369 5.25283 6.02373 5.28615 5.93452C5.3313 5.82058 5.66128 5.27025 8.07004 5.1445C8.75042 5.10903 9.52754 5.04346 10.2509 5.04346C10.9668 5.04346 11.0388 5.06173 11.5805 5.0886C11.8632 5.11547 12.1094 5.11977 12.1867 5.12622C14.8115 5.32292 15.1673 5.81736 15.2146 5.93559C15.2512 6.0248 15.2866 6.12584 15.3275 6.23118C15.3404 6.26772 15.3533 6.30427 15.3694 6.34189C15.3952 6.41713 15.4253 6.49452 15.4532 6.57513C15.4694 6.61598 15.4833 6.65575 15.4973 6.69659C15.536 6.80193 15.5758 6.90941 15.6145 7.01797C15.6317 7.06634 15.6478 7.11686 15.6671 7.16415C15.6972 7.25229 15.7284 7.33828 15.7596 7.42642C15.7811 7.48661 15.8004 7.5468 15.823 7.60807C15.8466 7.67579 15.8703 7.74135 15.8929 7.80907C15.9154 7.87141 15.9369 7.93375 15.9584 7.99609C15.996 8.10143 16.0294 8.20354 16.0659 8.30458C16.0885 8.36584 16.1068 8.42496 16.1282 8.48516C16.1508 8.55395 16.1745 8.62166 16.1981 8.68723C16.2185 8.74957 16.239 8.80654 16.2594 8.86673C16.2766 8.9108 16.2884 8.95379 16.3045 8.99679C16.3174 9.03978 16.3314 9.08063 16.3454 9.1204H4.15648V9.11825ZM16.0616 11.7613C16.9043 11.7613 17.589 12.446 17.589 13.2887C17.589 14.1314 16.9043 14.8161 16.0616 14.8161C15.2168 14.8161 14.5332 14.1303 14.5332 13.2887C14.5332 12.4449 15.2168 11.7613 16.0616 11.7613Z" fill="white"/>
<path d="M17.7468 1.97213L18.9755 3.89012L23.2676 1" stroke="white" stroke-width="2" stroke-linecap="round" stroke-linejoin="round"/>
</svg>
