<svg width="20" height="16" viewBox="0 0 20 16" fill="none" xmlns="http://www.w3.org/2000/svg">
<path d="M1.46519 6.46556C1.09054 6.46556 0.715897 6.32322 0.429047 6.03692C-0.143016 5.46485 -0.143016 4.53614 0.429047 3.96463C2.98343 1.40698 6.382 0 10.0009 0C13.6192 0 17.0189 1.40643 19.5716 3.96463C20.1432 4.53614 20.1432 5.46485 19.5695 6.03692C18.9968 6.60898 18.0687 6.61008 17.4966 6.03529C15.4985 4.03443 12.835 2.93229 10.0009 2.93229C7.1662 2.93229 4.50384 4.03497 2.50299 6.03692C2.21668 6.32377 1.84093 6.46556 1.46519 6.46556Z" fill="white"/>
<path d="M5.46033 10.4615C5.08514 10.4615 4.70939 10.3175 4.42254 10.0323C3.84939 9.45912 3.84939 8.53041 4.42254 7.95889C7.50099 4.8848 12.5034 4.8848 15.5748 7.95889C16.149 8.53041 16.149 9.45912 15.5748 10.0323C15.0033 10.606 14.0756 10.606 13.5014 10.0323C11.5714 8.10068 8.42808 8.10013 6.49703 10.0323C6.21018 10.3175 5.83444 10.4615 5.46033 10.4615Z" fill="white"/>
<path d="M11.9848 13.5319C11.9848 14.6296 11.0948 15.518 9.9981 15.518C8.90305 15.518 8.01306 14.6296 8.01306 13.5319C8.01306 12.4363 8.90305 11.5474 9.9981 11.5474C11.0948 11.5479 11.9848 12.4368 11.9848 13.5319Z" fill="white"/>
</svg>
