<svg width="23" height="24" viewBox="0 0 23 24" fill="none" xmlns="http://www.w3.org/2000/svg">
<path d="M7.17188 2.50812H15.406" stroke="#888888" stroke-width="1.5" stroke-linecap="round" stroke-linejoin="round"/>
<path d="M5.93058 5.23056C5.26998 5.23056 4.72949 4.69675 4.72949 4.02948V2.20114C4.72949 1.54054 5.26331 1.00006 5.93058 1.00006C6.59785 1.00006 7.13167 1.53387 7.13167 2.20114V4.02948C7.13167 4.69007 6.59785 5.23056 5.93058 5.23056Z" stroke="#888888" stroke-width="1.5" stroke-linecap="round" stroke-linejoin="round"/>
<path d="M16.6005 5.23056C15.9399 5.23056 15.3994 4.69675 15.3994 4.02948V2.20114C15.3994 1.54054 15.9332 1.00006 16.6005 1.00006C17.2678 1.00006 17.8016 1.53387 17.8016 2.20114V4.02948C17.8016 4.69007 17.2678 5.23056 16.6005 5.23056Z" stroke="#888888" stroke-width="1.5" stroke-linecap="round" stroke-linejoin="round"/>
<path d="M17.8016 2.50812H19.343C20.544 2.50812 21.5116 3.48233 21.5116 4.67675V14.4322V20.8247C21.5116 22.0258 20.5374 22.9933 19.343 22.9933H10.7752H12.9505H3.195C1.99391 22.9933 1.02637 22.0191 1.02637 20.8247V4.67675C1.02637 3.47566 2.00058 2.50812 3.195 2.50812H4.73639" stroke="#888888" stroke-width="1.5" stroke-linecap="round" stroke-linejoin="round"/>
<path d="M1.02051 8.15985H21.5124" stroke="#888888" stroke-width="1.5" stroke-linecap="round" stroke-linejoin="round"/>
<path d="M14.6855 8.15985V22.9999" stroke="#888888" stroke-width="1.5" stroke-linecap="round" stroke-linejoin="round"/>
<path d="M7.85254 8.15985V22.9999" stroke="#888888" stroke-width="1.5" stroke-linecap="round" stroke-linejoin="round"/>
<path d="M21.5119 15.5799H1" stroke="#888888" stroke-width="1.5" stroke-linecap="round" stroke-linejoin="round"/>
</svg>
