<svg width="41" height="43" viewBox="0 0 41 43" fill="none" xmlns="http://www.w3.org/2000/svg">
<path d="M27.6771 21.9078C28.0146 17.9309 25.0642 14.4335 21.0873 14.096C17.1104 13.7586 13.613 16.7089 13.2755 20.6858C12.9381 24.6627 15.8884 28.1602 19.8653 28.4976C23.8422 28.835 27.3397 25.8847 27.6771 21.9078Z" stroke="#888888" stroke-width="2" stroke-linecap="round" stroke-linejoin="round"/>
<path d="M31.4111 8.86061L33.5823 7.60861C34.6124 7.02224 35.9119 7.37088 36.5141 8.38515L39.6837 13.8844C40.2701 14.9145 39.9214 16.214 38.8913 16.8163L36.7201 18.0683L36.7518 24.5342L38.923 25.7862C39.9531 26.3726 40.3018 27.6879 39.7154 28.7022L36.5458 34.2015C35.9594 35.2157 34.6441 35.5802 33.614 34.978L31.427 33.726L25.8326 36.9907V39.5105C25.8326 40.6833 24.8818 41.65 23.6932 41.65H17.354C16.1654 41.65 15.2145 40.6833 15.2145 39.5105V36.9907L9.60432 33.7736L7.4173 35.0255C6.38718 35.6119 5.08766 35.2633 4.50129 34.249L1.3317 28.7656C0.745325 27.7355 1.09396 26.436 2.10823 25.8337L4.27944 24.5817L4.24771 18.1158L2.07655 16.8638C1.04644 16.2774 0.697784 14.9621 1.28416 13.9478L4.45374 8.46441C5.04012 7.4343 6.35551 7.08564 7.38562 7.67202L9.55678 8.92397L15.1511 5.6593V3.13948C15.1511 1.95089 16.1178 1 17.2905 1H23.6297C24.8183 1 25.7692 1.95089 25.7692 3.13948V5.6593L31.3794 8.86061H31.4111Z" stroke="#888888" stroke-width="2" stroke-linecap="round" stroke-linejoin="round"/>
</svg>
